<svg width="87" height="12" viewBox="0 0 87 12" fill="none" xmlns="http://www.w3.org/2000/svg">
<g clip-path="url(#clip0_429_199)">
<path d="M0.550781 0.712891H16.2588C16.9988 0.712891 17.5678 0.912635 17.9659 1.31212C18.3639 1.71161 18.5631 2.28264 18.5631 3.02523V6.00024C18.5631 6.73342 18.3616 7.29976 17.9588 7.69925C17.5608 8.09873 16.9941 8.29848 16.2588 8.29848H4.44266V11.2876H0.550781V0.712891ZM14.4323 5.61955C14.5026 5.61955 14.5587 5.60076 14.6009 5.56315C14.6477 5.52085 14.6711 5.46446 14.6711 5.39396V3.63151C14.6711 3.55631 14.6477 3.49756 14.6009 3.45527C14.5587 3.41297 14.5026 3.39182 14.4323 3.39182H4.44266V5.61955H14.4323Z" fill="white"/>
<path d="M21.4847 11.344C20.74 11.344 20.1639 11.1419 19.7565 10.7377C19.3537 10.3288 19.1523 9.75074 19.1523 9.00346V0.712891H23.0442V8.27028C23.0442 8.34078 23.0653 8.39718 23.1074 8.43948C23.1496 8.47707 23.2081 8.49587 23.2831 8.49587H33.0338C33.1087 8.49587 33.1673 8.47707 33.2094 8.43948C33.2516 8.39718 33.2727 8.34078 33.2727 8.27028V0.712891H37.1645V9.00346C37.1645 9.75074 36.9608 10.3288 36.5534 10.7377C36.1506 11.1419 35.5769 11.344 34.8322 11.344H21.4847Z" fill="white"/>
<path d="M37.7188 0.712891H41.6106V8.43948H52.078V11.2876H37.7188V0.712891Z" fill="white"/>
<path d="M54.7193 11.3438C54.0636 11.3438 53.5578 11.1534 53.2019 10.7727C52.8459 10.392 52.668 9.84919 52.668 9.14422V7.57915H56.5598V8.56612C56.5598 8.72592 56.6395 8.80583 56.7987 8.80583H66.3247C66.409 8.80583 66.4745 8.78232 66.5214 8.73532C66.5682 8.68833 66.5916 8.62252 66.5916 8.53792V7.93164C66.5916 7.81415 66.5612 7.7272 66.5003 7.6708C66.4441 7.6144 66.3481 7.58386 66.2123 7.57915L54.8738 6.84597C54.4055 6.81307 54.0167 6.70263 53.7077 6.51463C53.3986 6.32194 53.1714 6.07284 53.0263 5.76736C52.8811 5.46187 52.8085 5.11643 52.8085 4.73104V2.85578C52.8085 2.1508 52.9888 1.60797 53.3494 1.22728C53.7147 0.846594 54.2322 0.65625 54.9019 0.65625H68.3057C68.9614 0.65625 69.4672 0.846594 69.8232 1.22728C70.1791 1.60797 70.3571 2.1508 70.3571 2.85578V4.25165H66.4652V3.43388C66.4652 3.35397 66.4441 3.29523 66.402 3.25762C66.3645 3.21532 66.3013 3.19418 66.2123 3.19418H56.9533C56.8736 3.19418 56.8104 3.21768 56.7635 3.26468C56.7214 3.31167 56.7003 3.37748 56.7003 3.46207V3.92736C56.7003 4.04956 56.7308 4.14355 56.7917 4.20935C56.8526 4.27044 56.9486 4.30335 57.0797 4.30805L68.4041 5.04123C68.8678 5.07413 69.2541 5.18692 69.5632 5.37962C69.877 5.57231 70.1088 5.82846 70.2587 6.14805C70.4086 6.46294 70.4835 6.82248 70.4835 7.22666V9.14422C70.4835 9.84919 70.3008 10.392 69.9356 10.7727C69.5702 11.1534 69.0504 11.3438 68.376 11.3438H54.7193Z" fill="white"/>
<path d="M71.043 0.712891H86.9898V3.25082H74.9348V4.71718H86.6105V7.25511H74.9348V8.74967H86.9898V11.2876H71.043V0.712891Z" fill="white"/>
</g>
<defs>
<clipPath id="clip0_429_199">
<rect width="86.4375" height="10.6875" fill="white" transform="translate(0.550781 0.65625)"/>
</clipPath>
</defs>
</svg>
